<?xml version="1.0" encoding="utf-8"?>
<!-- Generator: Adobe Illustrator 19.0.0, SVG Export Plug-In . SVG Version: 6.00 Build 0)  -->
<svg version="1.1" id="layer" xmlns="http://www.w3.org/2000/svg" xmlns:xlink="http://www.w3.org/1999/xlink" x="0px" y="0px"
	 viewBox="-153 -46 652 652" style="enable-background:new -153 -46 652 652;" xml:space="preserve">
<style type="text/css">
	.st0{fill-rule:evenodd;clip-rule:evenodd;fill:#FBD034;}
	.st1{fill-rule:evenodd;clip-rule:evenodd;fill:#004A86;}
</style>
<polyline class="st0" points="-98,177.5 61.2,211.6 27.4,371.7 -131.8,337.7 -98,177.5 "/>
<path class="st1" d="M-98,177.4l159.1,34.1l-0.9,4.2H-87.1v11.4l146.6-7.6l-5.5,26.3H-87.1v11.4l140.3-7.6L47.6,276H-87.1v11.4
	l133.9-7.6l-5.6,26.3H-87.1v11.4l127.6-7.6l-13,61.8l-159.1-34.1l0.9-4.2l149.8-7.5v-3.8h-147.4l4-18.9l143.4-7.4V292h-141.1l4-18.8
	l137.1-7.5v-3.8h-134.7l4-18.8l130.8-7.5v-3.8h-128.4L-98,177.4 M160.4,231.8v90.3h-15.5l-43.5-59.8v59.8H83.6v-90.3h16l43.1,59.1
	v-59.1H160.4z M367.8,247.1h22.3v-15.3h-62.2v15.3h22.3v75h17.5V247.1z M316.7,234.7c-6.1-3.4-13-5.3-20-5.3
	c-26.3,0-44.3,22.6-44.3,48.3c0,24.9,18.7,46.9,43.9,46.9c7.3,0,13.8-2.3,20.4-5.4v-21c-4.9,5.6-12.4,9.6-19.9,9.6
	c-16.3,0-26.3-15.2-26.3-30.4c0-15.6,9.6-31.2,26.4-31.2c7.5,0,14.9,3.6,19.8,9.6V234.7z M237.6,247.1v-15.3h-54.9v90.3h54.9v-15.3
	h-37.4v-24.4h36.3V267h-36.3v-19.9H237.6z M437.8,288.7h-21.3l9.9-32.8L437.8,288.7z M385.6,322.1l34.1-90.3h15.4l33.2,90.3h-18.7
	l-6.9-19.1h-31.2l-7.4,19.1H385.6z M385.6,322.1"/>
</svg>
